# xmcd
#
# Track frame offsets: 
#        150
#        17775
#        54850
#        85440
#        120362
#
# Disc length: 2019 seconds
#
# Revision: 1
# Processed by: cddbd v1.5.2PL0 Copyright (c) Steve Scherf et al.
# Submitted via: ExactAudioCopy v1.0b3
#
DISCID=3207e105
DTITLE=Da Mob - Fun
DYEAR=1998
DGENRE=House
TTITLE0=Fun (Original Edit)
TTITLE1=Fun (Main Vocal Mix)
TTITLE2=Fun (Sneaks Big Fun Mix)
TTITLE3=Fun (Mongo Fun Dub)
TTITLE4=Fun (Todd Edwards Cut Up Mix)
EXTD=
EXTT0=
EXTT1=
EXTT2=
EXTT3=
EXTT4=
PLAYORDER=
